<svg width="200" height="182" viewBox="0 0 200 182" fill="none" xmlns="http://www.w3.org/2000/svg">
<path d="M37.222 37.371C47.5877 31.7272 57.8538 25.8981 68.4897 20.7531L64.1813 15.1522C59.4321 19.5988 53.6308 22.7627 48.2133 26.2829C42.0707 30.2734 35.8143 34.0787 29.5295 37.8412C25.605 40.1928 29.1314 46.2785 33.1127 43.9981C42.9381 38.3401 53.2752 33.694 63.5983 29.0621C73.9213 24.4302 84.3724 20.2543 95.1219 16.8481L91.1123 11.6178C90.6146 12.3161 89.9036 12.7436 89.1216 13.0287C88.4533 13.271 87.728 13.2566 87.0454 13.4561C86.107 13.7269 85.1971 14.3256 84.3155 14.7674C81.1873 16.3493 78.0592 17.9455 74.9452 19.5417C68.5608 22.8054 62.1764 26.0691 55.8774 29.5038C43.7059 36.131 31.8188 43.2713 20.3013 50.9674C16.5191 53.49 19.889 59.4472 23.8846 57.1241C50.332 41.7605 77.7605 27.9219 105.928 15.993C113.82 12.6438 121.84 9.59399 130.001 7.00013L127.257 0.486894C123.859 3.05225 120.034 4.87654 116.251 6.77205C112.171 8.81008 108.118 10.9336 104.052 13.0144C96.0178 17.1332 87.9982 21.2378 80.0213 25.4563C63.8827 33.979 47.9573 42.972 32.3163 52.3783C27.9653 54.9864 23.6427 57.6372 19.3344 60.3166C17.0877 61.7133 14.8554 63.1101 12.6372 64.5353C10.803 65.7039 9.21046 67.1434 7.1487 67.9272L9.89305 74.4403C39.0279 54.9721 71.3762 40.9625 103.312 26.8673C112.427 22.834 121.512 18.7151 130.414 14.2115C133.94 12.4158 131.437 6.145 127.669 7.69847C110.905 14.6249 94.866 23.0477 79.1113 32.0122C63.2286 41.0337 47.5877 50.4971 32.2596 60.445C23.6713 66.0175 15.1682 71.7466 6.77899 77.6042C3.03938 80.2123 6.25292 85.8704 10.3622 83.7611C14.4715 81.6518 18.5097 79.0721 22.5621 76.7063C26.6145 74.3405 30.8803 71.9177 35.0749 69.5803C43.4642 64.9199 51.9387 60.4163 60.4844 56.0552C77.0638 47.6181 93.8564 39.4659 111.033 32.3114C120.773 28.2496 130.655 24.5156 140.694 21.2804L136.201 17.8458L136.926 15.9788C136.656 16.221 136.698 16.2067 137.04 15.936C136.77 16.0215 136.443 16.3207 136.201 16.449C135.646 16.7626 135.063 17.0335 134.48 17.29C133.84 17.575 132.234 18.1594 131.224 18.5727C126.759 20.3685 122.423 22.6201 118.086 24.6867C108.659 29.176 99.2739 33.7937 89.9747 38.5538C71.4899 48.0028 53.4174 58.1787 35.5014 68.6539C25.3632 74.5827 15.2677 80.5829 5.158 86.5259L8.74123 92.6829C17.4006 86.6828 26.771 81.8371 36.0844 76.9487C45.3979 72.0602 54.8678 67.243 64.3661 62.6111C83.6329 53.2333 103.269 44.668 123.148 36.6869C134.039 32.3115 144.86 27.6796 156.122 24.3161L153.377 17.8031C143.154 22.4919 132.774 26.8102 122.607 31.6416C112.498 36.4588 102.502 41.561 92.6051 46.8057C72.6416 57.3664 52.9341 68.3975 33.4682 79.8561C28.1076 83.02 22.7754 86.2409 17.429 89.4334C14.6706 91.0724 11.8268 92.6257 9.11094 94.3217C7.9592 95.0486 7.07759 96.0891 5.88319 96.7446C4.88785 97.3005 3.83566 97.5426 2.69813 97.6994L5.44249 104.213C15.1541 97.8563 25.3207 92.2553 35.6295 86.9393C45.9383 81.6233 56.8015 76.1647 67.4943 71.0055C88.8939 60.6729 110.749 51.4091 132.703 42.3449C145.187 37.1857 157.686 32.055 170.113 26.7533C173.824 25.1714 171.18 19.0572 167.369 20.2401C155.809 23.8173 144.647 28.8911 133.727 34.0503C123.006 39.1098 112.483 44.5967 102.047 50.2262C80.9171 61.6278 59.9725 73.3998 39.497 85.9273C27.9938 92.9678 16.647 100.265 5.49924 107.875C1.75963 110.426 5.21489 116.541 9.08247 114.032C27.5388 102.089 46.8483 91.5426 66.4848 81.6945C86.1213 71.8464 106.199 62.3974 126.361 53.4329C137.879 48.3022 149.51 43.4423 161.312 39.0242L158.567 32.511C116.948 50.7392 78.2865 74.9676 39.9377 99.1389C29.0744 105.98 18.1827 112.778 7.1487 119.32L11.4571 124.921C19.1354 117.624 29.0603 112.878 38.1463 107.619C48.1849 101.804 58.3515 96.203 68.6176 90.8158C89.6049 79.8133 111.09 69.7229 132.774 60.1883C144.533 55.0149 156.335 49.5706 168.777 46.2784L166.032 39.7654C125.437 61.129 85.6948 84.2457 47.2038 109.229C36.568 116.127 26.2307 123.439 15.3816 130.023L19.6898 135.624C23.529 131.847 27.9797 128.854 32.4444 125.89C37.1083 122.797 41.8147 119.776 46.5923 116.854C56.3893 110.868 66.4137 105.253 76.5093 99.7661C96.4444 88.9203 116.479 78.2028 137.125 68.7681C148.799 63.4378 160.672 58.5494 172.786 54.288L168.293 50.8532V51.6229C168.89 50.5968 169.473 49.5706 170.07 48.5444C149.225 59.4044 128.266 70.065 107.862 81.7516C87.4578 93.4382 67.2953 105.837 47.4739 118.607C36.2977 125.819 25.2923 133.287 13.9597 140.256L17.5427 146.413C27.4108 139.144 37.9471 132.888 48.4976 126.688C59.0482 120.488 70.2954 114.218 81.3578 108.289C103.483 96.4453 125.935 85.1007 148.713 74.5685C155.055 71.6326 161.44 68.7965 167.881 66.0601C171.094 64.692 174.379 63.4379 177.578 62.0412C180.564 60.73 183.422 59.5328 186.607 58.7917L183.863 52.2784C163.9 63.737 143.481 74.3548 123.361 85.5284C103.241 96.7019 83.9315 108.602 64.4798 120.588C53.4743 127.372 42.4546 134.156 31.3069 140.726L34.8901 146.883C43.4499 140.398 52.6923 134.797 61.8636 129.239C71.0349 123.681 80.263 118.393 89.6192 113.248C108.545 102.83 127.783 92.9679 147.576 84.2885C158.795 79.3715 170.071 74.4403 181.73 70.6492L178.986 64.1362C175.033 67.1861 170.696 69.7941 166.075 71.6896C160.729 73.8701 155.652 76.7063 150.534 79.3857C140.481 84.6304 130.513 90.0178 120.617 95.5333C100.611 106.707 80.9172 118.436 61.3944 130.436C50.3462 137.22 39.3407 144.075 28.3494 150.931C24.4676 153.353 28.0223 159.496 31.9326 157.087C52.536 144.36 73.3952 132.032 94.7095 120.531C115.967 109.058 137.694 98.355 159.79 88.6067C172.146 83.1624 184.688 78.0888 197.4 73.5424L193.39 68.3119C191.328 71.5471 188.171 73.4854 184.503 74.4118C181.588 75.1386 179.1 76.7349 176.469 78.1886C173.839 79.6423 171.322 81.039 168.748 82.4642C158.354 88.2219 147.988 94.0083 137.623 99.8089C117.105 111.31 96.7855 123.182 76.7651 135.538C65.8164 142.294 55.1238 149.292 43.6348 155.135L47.9431 160.736C50.8011 157.401 54.3986 155.092 58.124 152.855C62.3186 150.332 66.4564 147.738 70.6653 145.244C79.6375 139.914 88.7803 134.869 98.0085 130.009C116.707 120.161 135.689 110.797 154.913 102.018C160.359 99.5237 165.819 97.0582 171.293 94.6211C173.881 93.4667 176.498 92.3978 179.142 91.3859C180.635 90.8158 181.687 90.2315 182.853 89.0913C183.038 88.9203 183.266 88.6923 183.266 88.7065C183.28 88.8918 181.915 88.1222 181.958 88.1792L183.237 83.305C174.294 88.7635 165.122 93.7802 155.823 98.6116C146.524 103.443 136.983 108.973 127.698 114.346C109.128 125.092 90.7851 136.237 72.4994 147.453C62.1337 153.824 51.7823 160.223 41.4166 166.593L44.9998 172.75C61.4512 160.85 78.9691 150.546 96.8566 140.983C114.787 131.391 133.016 122.227 151.657 114.089C162.179 109.5 172.9 105.324 183.792 101.676L179.413 97.2862C179.341 97.671 179.27 98.0557 179.156 98.4405C179.142 98.5118 178.901 99.0676 179.114 98.6258C178.773 99.3669 178.958 99.0963 178.389 99.6378C177.82 100.179 176.739 100.564 175.517 100.806C174.877 100.935 174.237 100.963 173.583 101.02C172.303 101.12 171.379 101.59 170.27 102.175C168.208 103.272 166.146 104.369 164.084 105.467C155.951 109.814 147.846 114.218 139.77 118.678C123.731 127.543 107.905 136.793 92.1927 146.242C83.8746 151.244 75.8978 156.802 67.082 160.907L70.6653 167.064C84.671 158.527 99.0464 150.589 113.607 143.035C128.167 135.481 142.244 128.384 156.975 121.956C165.179 118.379 173.554 115.158 182.1 112.465L178.645 106.507C176.355 108.859 173.767 110.74 170.81 112.165C169.431 112.835 167.98 113.248 166.53 113.733C164.44 114.431 162.449 115.685 160.487 116.697C153.235 120.446 146.012 124.279 138.817 128.156C124.399 135.952 110.009 143.79 95.7902 151.928C87.6711 156.574 79.6089 161.32 71.6463 166.223C67.7503 168.617 71.2624 174.689 75.2295 172.38C102.374 156.574 130.485 142.194 159.293 129.667C163.203 127.971 167.084 126.26 170.952 124.45C174.422 122.826 178.275 121.842 182.086 121.5L180.294 114.859C174.521 119.263 168.379 122.826 162.023 126.289C155.667 129.752 149.012 134.014 142.557 137.89C129.589 145.672 116.607 153.453 103.767 161.449C96.5296 165.952 89.349 170.555 82.2679 175.287C78.4998 177.81 81.9124 183.852 85.8511 181.444C111.844 165.567 138.518 150.916 166.501 138.859C168.421 138.032 170.355 137.22 172.289 136.422C174.223 135.624 176.213 134.555 178.218 133.714C181.73 132.232 185.541 131.263 189.323 130.864L186.252 125.505C184.801 127.386 182.939 128.997 180.92 130.222C178.403 131.747 175.573 132.617 172.985 134.014C166.9 137.291 160.814 140.569 154.714 143.847C142.415 150.46 130.144 157.116 117.915 163.843C110.919 167.691 103.938 171.539 96.942 175.387L100.525 181.544C112.455 174.831 124.669 168.646 137.182 163.087C143.324 160.351 149.481 157.672 155.752 155.249C158.965 154.009 162.193 152.926 165.264 151.358C167.923 150.004 170.81 149.505 173.768 149.605L171.976 142.964C163.004 148.408 153.491 152.854 144.036 157.372C139.187 159.695 134.352 162.033 129.518 164.37C127.285 165.453 124.925 166.209 122.721 167.349C120.517 168.489 118.626 169.857 116.778 171.411C115.441 172.537 115.484 174.817 116.493 176.085C117.659 177.567 119.422 177.767 121.086 176.997C128.053 173.805 134.992 170.541 142.201 167.89C145.827 166.551 149.538 165.467 153.235 164.327C155.155 163.743 156.861 163.102 158.624 162.118C158.795 162.033 159.008 162.004 159.179 161.947C159.122 161.962 158.909 161.876 158.894 161.876C158.71 162.118 159.577 161.833 158.994 161.919C158.809 161.947 158.553 161.263 159.093 162.275L159.648 157.957C154.259 162.802 147.789 166.123 141.192 168.973C137.537 170.555 140.21 177.054 143.936 175.487C148.216 173.691 153.221 171.368 157.984 172.18L155.496 167.791C154.572 170.342 152.411 172.138 150.463 173.919C148.074 176.085 150.05 179.89 152.979 180.004C153.349 180.047 153.719 180.033 154.074 179.962C155.979 179.72 157.629 178.494 157.629 176.399C157.629 174.66 155.994 172.594 154.074 172.836C153.719 172.907 153.349 172.935 152.979 172.878L155.496 178.964C158.468 176.27 160.97 173.52 162.364 169.7C162.975 168.019 161.667 165.624 159.876 165.311C153.591 164.228 147.775 166.209 142.045 168.617L144.789 175.13C151.984 172.023 158.823 168.261 164.696 163.002C165.89 161.933 165.975 160.023 165.25 158.684C163.217 154.935 159.278 154.052 155.539 155.748C154.671 156.133 153.903 156.646 153.008 156.945C151.927 157.315 150.818 157.615 149.723 157.957C147.434 158.655 145.13 159.325 142.869 160.109C134.196 163.102 125.864 167.021 117.531 170.841L121.84 176.441C125.352 173.491 129.689 172.18 133.755 170.213C138.59 167.876 143.41 165.539 148.244 163.23C157.501 158.812 166.8 154.437 175.587 149.106C178.659 147.239 177.308 142.593 173.796 142.465C170.54 142.351 167.241 142.85 164.212 144.075C162.648 144.702 161.198 145.572 159.648 146.199C157.97 146.883 156.235 147.453 154.529 148.109C147.889 150.66 141.362 153.482 134.85 156.361C121.925 162.076 109.284 168.432 96.9705 175.358C92.9749 177.61 96.5438 183.724 100.554 181.515C125.636 167.734 150.79 154.066 175.986 140.484C179.014 138.859 182.327 137.805 185.214 135.923C188.1 134.042 190.361 131.762 192.423 129.068C194.016 127.001 191.883 123.438 189.352 123.709C185.655 124.094 182 124.778 178.474 126.004C174.948 127.23 171.635 128.997 168.194 130.451C160.956 133.486 153.776 136.664 146.68 140.014C132.504 146.698 118.626 154.009 105.018 161.791C97.3685 166.166 89.7897 170.684 82.2679 175.273L85.8511 181.43C111.005 164.598 137.182 149.277 163.203 133.857C166.63 131.819 170.213 130.066 173.625 127.999C177.038 125.933 180.578 123.51 183.877 121.002C185.157 120.032 185.967 118.636 185.512 116.982C185.128 115.571 183.621 114.232 182.086 114.36C178.318 114.702 174.606 115.4 171.052 116.74C167.497 118.08 164.227 119.861 160.771 121.329C153.363 124.479 146.026 127.757 138.732 131.163C124.186 137.976 109.81 145.187 95.6623 152.783C87.5859 157.116 79.5663 161.591 71.6463 166.209L75.2295 172.365C103.497 154.978 132.788 139.087 162.222 123.795C164.241 122.754 166.26 121.472 168.364 120.631C170.184 119.89 172.075 119.377 173.867 118.55C177.536 116.868 180.849 114.431 183.65 111.538C186.053 109.073 183.65 104.483 180.194 105.581C164.667 110.469 149.766 117.139 135.134 124.265C120.361 131.448 105.715 138.916 91.3254 146.854C83.1495 151.372 75.0589 156.033 67.082 160.907C63.1149 163.33 66.5844 168.973 70.6653 167.064C77.4051 163.928 83.4481 159.867 89.7756 156.018C96.5581 151.9 103.383 147.824 110.223 143.805C123.802 135.809 137.495 128.013 151.33 120.446C159.221 116.127 167.141 111.88 175.09 107.676L173.298 108.16C179.071 107.89 185.2 105.595 186.266 99.1817C186.678 96.7018 184.702 93.8658 181.887 94.7921C162.193 101.362 143.14 109.742 124.484 118.849C105.829 127.956 87.8987 137.249 70.3098 147.695C60.3991 153.581 50.7158 159.838 41.3739 166.579C39.824 167.705 39.0705 169.686 40.0943 171.453C41.047 173.092 43.3077 173.748 44.9571 172.736C81.6707 150.189 118.185 127.201 156.022 106.55C166.331 100.92 176.739 95.576 186.778 89.4476C188.299 88.5213 189.195 86.1554 188.058 84.5734C186.764 82.7777 185.114 81.495 182.811 81.5805C180.507 81.6661 178.474 83.2765 176.91 84.944L178.474 84.0318C168.791 87.6518 159.406 92.1271 150.022 96.4311C140.637 100.735 131.295 105.196 122.039 109.771C103.838 118.778 85.7089 128.042 68.2194 138.375C63.6978 141.04 59.2615 143.833 54.754 146.541C50.2466 149.249 46.1658 151.857 42.8812 155.691C40.2507 158.755 43.5069 163.159 47.1896 161.292C57.5411 156.018 67.21 149.833 77.0638 143.719C86.9176 137.605 97.2974 131.32 107.507 125.291C128.181 113.092 149.169 101.448 170.156 89.8182C173.142 88.165 176.128 86.5116 179.114 84.8584C180.55 84.0603 182 83.2623 183.436 82.4642C184.787 81.7231 185.939 81.438 187.404 80.9962C192.466 79.4712 196.66 76.3785 199.518 71.9034C201.125 69.3808 198.438 65.6184 195.508 66.6731C172.602 74.8679 150.334 84.7303 128.451 95.3337C106.469 105.994 84.8985 117.453 63.7406 129.695C51.825 136.593 40.0374 143.691 28.3351 150.931L31.9183 157.087C70.8217 132.845 109.839 108.83 150.42 87.4666C155.994 84.5307 161.567 81.21 167.383 78.7872C172.815 76.5212 177.891 73.8844 182.569 70.2787C183.977 69.1955 184.802 67.5851 184.019 65.8321C183.337 64.2786 181.545 63.2098 179.825 63.7656C169.303 67.1861 159.15 71.6041 148.984 75.9509C138.817 80.2978 129.02 84.8158 119.223 89.6472C99.672 99.2958 80.4622 109.785 61.7499 120.973C51.3842 127.158 40.8904 133.415 31.2642 140.726C29.7285 141.881 28.9322 143.805 29.9844 145.6C30.9513 147.268 33.1838 147.852 34.8474 146.883C54.7398 135.139 74.2483 122.769 93.9986 110.811C113.536 98.9965 133.485 88.0082 153.562 77.1339C164.895 71.0056 176.213 64.8487 187.389 58.4211C190.958 56.3688 188.527 51.01 184.645 51.9079C178.829 53.2618 173.398 56.041 167.909 58.3355C162.051 60.8011 156.207 63.3238 150.42 65.9462C138.902 71.1624 127.513 76.6494 116.209 82.2931C93.6004 93.5522 71.1913 105.253 49.3224 117.909C37.2505 124.892 25.1358 131.961 13.8885 140.242C12.3386 141.382 11.5708 143.334 12.6088 145.116C13.5614 146.755 15.8223 147.41 17.4717 146.398C27.5246 140.227 37.3216 133.643 47.2038 127.201C57.0861 120.759 66.9824 114.531 76.9784 108.374C97.141 95.9607 117.617 84.0746 138.533 72.958C150.178 66.7727 161.909 60.7727 173.597 54.6728C174.677 54.1028 175.374 52.7915 175.36 51.5944V50.8249C175.317 48.6443 173.085 46.6063 170.853 47.3901C148.927 55.1004 127.783 64.8346 107.109 75.4095C86.4342 85.9845 65.973 96.8443 46.1374 108.745C40.6488 112.037 35.2313 115.457 29.8849 118.992C24.5386 122.526 19.1922 126.047 14.6137 130.55C11.7557 133.372 15.4384 138.261 18.9221 136.151C28.5911 130.294 37.8049 123.809 47.2606 117.624C56.7162 111.438 66.6127 105.153 76.3954 99.0963C95.8186 87.0961 115.526 75.5234 135.447 64.3926C146.737 58.079 158.112 51.9222 169.544 45.9079C173.156 43.9981 170.654 38.3829 166.8 39.3948C155.553 42.3735 144.874 47.1763 134.224 51.7797C123.574 56.383 112.043 61.6278 101.08 66.8013C79.552 76.9487 58.3799 87.7516 37.7197 99.5808C32.2169 102.73 26.7142 105.88 21.2541 109.087C15.7939 112.293 10.8031 115.614 6.33829 119.861C3.39495 122.655 7.17708 127.515 10.6465 125.462C30.3684 113.79 49.5926 101.277 69.0727 89.191C88.3395 77.2337 107.948 65.7608 128.011 55.1859C139.173 49.2856 150.519 43.7274 162.079 38.6679C165.734 37.0717 163.117 30.7437 159.335 32.1547C137.879 40.1785 117.005 49.6846 96.2738 59.4187C75.5424 69.1528 56.4746 78.3595 37.1651 88.9772C26.3728 94.9203 15.7513 101.177 5.41402 107.875L8.99725 114.032C28.6622 100.593 48.9811 88.1649 69.6413 76.3215C90.2163 64.5209 111.005 52.9198 132.333 42.5444C144.263 36.7439 156.477 31.0432 169.16 27.1096L166.416 20.5964C144.476 29.9599 122.309 38.7676 100.383 48.1881C78.5283 57.5944 57.1002 67.9129 35.9138 78.7444C24.2542 84.7017 12.7225 90.887 1.74539 98.0557C0.266614 99.0248 -0.444193 100.835 0.295198 102.502C1.06303 104.27 2.66971 104.811 4.48975 104.569C6.7648 104.255 8.89766 103.343 10.7177 101.975C13.0354 100.236 15.4384 98.8111 17.9409 97.3431C22.9034 94.4215 27.8232 91.4143 32.7715 88.4784C42.5115 82.7064 52.3226 77.02 62.1906 71.4617C81.7702 60.4307 101.549 49.6989 121.768 39.8793C133.329 34.264 145.173 29.3043 156.861 23.9456C160.544 22.2496 157.927 16.2923 154.117 17.4325C143.936 20.4824 134.139 24.5728 124.299 28.5348C114.46 32.4969 104.023 36.7867 93.9701 41.1478C74.3194 49.6704 55.0384 58.9769 36.0417 68.8677C25.5054 74.3547 14.827 79.742 5.04431 86.5117C1.33314 89.0913 4.63199 95.0202 8.62754 92.6686C27.0839 81.8229 45.4405 70.8061 64.1244 60.3736C82.9219 49.8699 102.118 40.0931 121.555 30.8294C124.285 29.5324 127.015 28.2496 129.745 26.967C130.371 26.6677 131.011 26.3826 131.637 26.0833C131.892 25.9693 134.48 24.8435 133.002 25.4278C133.528 25.214 134.068 25.0146 134.594 24.8151C138.063 23.4754 142.67 22.0929 143.211 17.8316C143.495 15.5513 140.708 13.7555 138.718 14.3968C120.674 20.2259 103.17 27.6227 85.9933 35.6465C68.6318 43.7559 51.4837 52.3497 34.691 61.585C29.9845 64.1789 25.3064 66.8156 20.6568 69.5092C16.0072 72.2028 11.4714 75.1386 6.67954 77.6042L10.2626 83.7611C39.7671 63.1956 70.4518 43.9838 102.345 27.3661C111.204 22.7484 120.219 18.4016 129.461 14.5821L126.717 8.06903C110.834 16.1214 94.3684 22.9052 78.1445 30.2022C62.2618 37.3424 46.4786 44.8675 31.1932 53.2334C22.6617 57.908 14.2866 62.8819 6.19596 68.2976C4.7314 69.281 4.0062 71.0625 4.74559 72.7442C5.39967 74.2407 7.26247 75.4522 8.94032 74.8109C12.9643 73.2859 16.2915 70.5779 19.9031 68.3119C23.7992 65.8606 27.7236 63.452 31.6481 61.0577C39.5397 56.2548 47.5166 51.5802 55.5504 47.0053C71.6321 37.8413 87.9839 29.2188 104.464 20.7674C109 18.4443 113.521 16.1212 118.057 13.7982C122.593 11.4751 126.859 9.60808 130.769 6.65793C132.177 5.58903 132.987 3.96431 132.219 2.21132C131.537 0.643609 129.745 -0.396714 128.025 0.144861C113.18 4.83375 98.9042 11.1474 84.7704 17.632C70.6367 24.1167 56.7447 30.9148 43.0518 38.2403C35.3593 42.3449 27.752 46.6063 20.2159 50.9816L23.7992 57.1384C35.7005 49.1858 47.9715 41.8318 60.5554 35.0336C67.0819 31.4991 73.708 28.1357 80.3056 24.758C81.9693 23.9029 83.6329 23.062 85.3108 22.2069C86.8038 21.4515 88.2683 20.511 89.9177 20.1689C92.9606 19.5561 95.378 17.7175 97.1553 15.2234C98.9327 12.7293 95.9609 9.09514 93.1455 9.99301C82.0262 13.5132 71.1914 17.8886 60.5413 22.6488C49.8912 27.4089 39.4545 32.0977 29.4442 37.8555L33.0273 44.0124C39.5112 40.1359 45.9525 36.2023 52.2799 32.0693C58.0387 28.321 64.0817 24.9289 69.1152 20.2115C72.215 17.3041 68.2907 12.9431 64.807 14.6106C54.1712 19.7413 43.9049 25.5704 33.5392 31.2285C29.5152 33.4233 33.0984 39.58 37.1224 37.3852L37.222 37.371Z" fill="#9658CA" fill-opacity="0.3"/>
<path d="M119.656 39.0002C119.484 39.0033 119.313 39.0305 119.149 39.0811C118.765 39.2064 118.434 39.4542 118.205 39.7863C117.977 40.1184 117.864 40.5164 117.884 40.9191V55.6228C117.884 56.1103 118.077 56.5778 118.422 56.9225C118.767 57.2671 119.235 57.4608 119.722 57.4608H134.432C134.809 57.471 135.181 57.3646 135.496 57.1562C135.811 56.9478 136.054 56.6474 136.193 56.296C136.331 55.9445 136.357 55.559 136.269 55.1919C136.18 54.8248 135.98 54.494 135.697 54.2443L120.987 39.5406C120.813 39.3658 120.606 39.2279 120.377 39.135C120.148 39.0422 119.903 38.9964 119.656 39.0002ZM64.1947 39.059C64.1257 39.0625 64.0569 39.0699 63.9888 39.0811C63.6054 39.2064 63.274 39.4542 63.0454 39.7863C62.8168 40.1184 62.7038 40.5164 62.7238 40.9191V67.7975L48.7021 79.1709C48.4795 79.3493 48.3015 79.577 48.1821 79.836C48.0628 80.095 48.0054 80.3783 48.0144 80.6633C48.0132 80.7013 48.0132 80.7393 48.0144 80.7773C48.0133 80.814 48.0133 80.8508 48.0144 80.8875C47.9952 81.0401 47.9952 81.1945 48.0144 81.347V140.162C48.0144 140.649 48.2081 141.117 48.553 141.462C48.8978 141.806 49.3654 142 49.8531 142H149.141C149.629 142 150.096 141.806 150.441 141.462C150.786 141.117 150.98 140.649 150.98 140.162V81.347C150.981 81.3103 150.981 81.2735 150.98 81.2368C150.984 81.1609 150.984 81.0847 150.98 81.0088C150.981 80.9709 150.981 80.9329 150.98 80.8949C151.028 80.572 150.989 80.2422 150.868 79.9392C150.746 79.6362 150.546 79.371 150.288 79.1709L136.27 67.7975V63.0886C136.29 62.8171 136.248 62.5447 136.149 62.2911C136.05 62.0376 135.896 61.8091 135.698 61.6224C135.5 61.4356 135.263 61.2952 135.004 61.2112C134.745 61.1272 134.47 61.1018 134.2 61.1367C133.733 61.1948 133.307 61.4296 133.008 61.7927C132.709 62.1558 132.56 62.6196 132.593 63.0886V90.4266L99.4971 112.482L66.4011 90.4266V69.29C66.5498 68.8828 66.5498 68.4362 66.4011 68.0291V42.757H112.368C112.855 42.757 113.323 42.5634 113.668 42.2187C114.013 41.874 114.206 41.4065 114.206 40.9191C114.206 40.4316 114.013 39.9641 113.668 39.6194C113.323 39.2747 112.855 39.0811 112.368 39.0811H64.5624C64.4409 39.0615 64.3177 39.0541 64.1947 39.059ZM121.561 45.2824L130.067 53.7848H121.561V45.2824ZM73.388 48.2489C73.319 48.2524 73.2503 48.2597 73.1821 48.2709C72.7988 48.3962 72.4673 48.644 72.2387 48.9761C72.0101 49.3082 71.8971 49.7063 71.9171 50.1089V64.8127C71.9171 65.3001 72.1108 65.7676 72.4556 66.1123C72.8004 66.457 73.2681 66.6506 73.7558 66.6506H88.4651C88.9527 66.6506 89.4204 66.457 89.7652 66.1123C90.11 65.7676 90.3038 65.3001 90.3038 64.8127V50.1089C90.3038 49.6215 90.11 49.154 89.7652 48.8093C89.4204 48.4646 88.9527 48.2709 88.4651 48.2709H73.7558C73.6342 48.2513 73.511 48.2439 73.388 48.2489ZM75.5944 51.9469H86.6264V62.9747H75.5944V51.9469ZM92.1424 53.7848V57.4608H110.529V53.7848H92.1424ZM92.1424 61.1367V64.8127H110.529V61.1367H92.1424ZM73.7558 68.4886V72.1645H125.238V68.4886H73.7558ZM62.7238 72.5064V88.0189L52.2654 81.0088L62.7238 72.5064ZM136.27 72.5064L146.729 81.0088L136.27 88.0152V72.5064ZM73.7558 75.8405V79.5164H125.238V75.8405H73.7558ZM73.7558 83.1923V86.8683H125.238V83.1923H73.7558ZM51.6918 85.0303L98.4638 116.276C98.7686 116.483 99.1286 116.594 99.4971 116.594C99.8656 116.594 100.226 116.483 100.53 116.276L147.302 85.0303V138.331H51.6918V85.0303ZM106.852 90.5442V94.2202H121.561V90.5442H106.852Z" fill="black"/>
</svg>
