<svg width="248" height="116" viewBox="0 0 248 116" fill="none" xmlns="http://www.w3.org/2000/svg">
<path d="M25.32 52V24H30.68L47.2 44.16H44.6V24H51V52H45.68L29.12 31.84H31.72V52H25.32ZM67.4247 52.32C65.1314 52.32 63.0914 51.84 61.3047 50.88C59.5447 49.92 58.1447 48.6133 57.1047 46.96C56.0914 45.28 55.5847 43.3733 55.5847 41.24C55.5847 39.08 56.0914 37.1733 57.1047 35.52C58.1447 33.84 59.5447 32.5333 61.3047 31.6C63.0914 30.64 65.1314 30.16 67.4247 30.16C69.6914 30.16 71.718 30.64 73.5047 31.6C75.2914 32.5333 76.6914 33.8267 77.7047 35.48C78.718 37.1333 79.2247 39.0533 79.2247 41.24C79.2247 43.3733 78.718 45.28 77.7047 46.96C76.6914 48.6133 75.2914 49.92 73.5047 50.88C71.718 51.84 69.6914 52.32 67.4247 52.32ZM67.4247 47.2C68.4647 47.2 69.398 46.96 70.2247 46.48C71.0514 46 71.7047 45.32 72.1847 44.44C72.6647 43.5333 72.9047 42.4667 72.9047 41.24C72.9047 39.9867 72.6647 38.92 72.1847 38.04C71.7047 37.16 71.0514 36.48 70.2247 36C69.398 35.52 68.4647 35.28 67.4247 35.28C66.3847 35.28 65.4514 35.52 64.6247 36C63.798 36.48 63.1314 37.16 62.6247 38.04C62.1447 38.92 61.9047 39.9867 61.9047 41.24C61.9047 42.4667 62.1447 43.5333 62.6247 44.44C63.1314 45.32 63.798 46 64.6247 46.48C65.4514 46.96 66.3847 47.2 67.4247 47.2ZM92.1956 52.32C89.6623 52.32 87.689 51.68 86.2756 50.4C84.8623 49.0933 84.1556 47.16 84.1556 44.6V25.72H90.3956V44.52C90.3956 45.4267 90.6356 46.1333 91.1156 46.64C91.5956 47.12 92.249 47.36 93.0756 47.36C94.0623 47.36 94.9023 47.0933 95.5956 46.56L97.2756 50.96C96.6356 51.4133 95.8623 51.76 94.9556 52C94.0756 52.2133 93.1556 52.32 92.1956 52.32ZM80.8356 35.76V30.96H95.7556V35.76H80.8356ZM110.794 52.32C108.341 52.32 106.181 51.84 104.314 50.88C102.474 49.92 101.048 48.6133 100.034 46.96C99.021 45.28 98.5144 43.3733 98.5144 41.24C98.5144 39.08 99.0077 37.1733 99.9944 35.52C101.008 33.84 102.381 32.5333 104.114 31.6C105.848 30.64 107.808 30.16 109.994 30.16C112.101 30.16 113.994 30.6133 115.674 31.52C117.381 32.4 118.728 33.68 119.714 35.36C120.701 37.0133 121.194 39 121.194 41.32C121.194 41.56 121.181 41.84 121.154 42.16C121.128 42.4533 121.101 42.7333 121.074 43H103.594V39.36H117.794L115.394 40.44C115.394 39.32 115.168 38.3467 114.714 37.52C114.261 36.6933 113.634 36.0533 112.834 35.6C112.034 35.12 111.101 34.88 110.034 34.88C108.968 34.88 108.021 35.12 107.194 35.6C106.394 36.0533 105.768 36.7067 105.314 37.56C104.861 38.3867 104.634 39.3733 104.634 40.52V41.48C104.634 42.6533 104.888 43.6933 105.394 44.6C105.928 45.48 106.661 46.16 107.594 46.64C108.554 47.0933 109.674 47.32 110.954 47.32C112.101 47.32 113.101 47.1467 113.954 46.8C114.834 46.4533 115.634 45.9333 116.354 45.24L119.674 48.84C118.688 49.96 117.448 50.8267 115.954 51.44C114.461 52.0267 112.741 52.32 110.794 52.32ZM141.597 52L133.837 30.48H139.717L146.157 49H143.357L150.077 30.48H155.357L161.877 49H159.077L165.717 30.48H171.237L163.437 52H157.397L151.677 36.12H153.517L147.597 52H141.597ZM174.138 52V30.48H180.378V52H174.138ZM177.258 27.48C176.111 27.48 175.178 27.1467 174.458 26.48C173.738 25.8133 173.378 24.9867 173.378 24C173.378 23.0133 173.738 22.1867 174.458 21.52C175.178 20.8533 176.111 20.52 177.258 20.52C178.404 20.52 179.338 20.84 180.058 21.48C180.778 22.0933 181.138 22.8933 181.138 23.88C181.138 24.92 180.778 25.7867 180.058 26.48C179.364 27.1467 178.431 27.48 177.258 27.48ZM193.409 52.32C191.569 52.32 189.796 52.1067 188.089 51.68C186.409 51.2267 185.076 50.6667 184.089 50L186.169 45.52C187.156 46.1333 188.316 46.64 189.649 47.04C191.009 47.4133 192.342 47.6 193.649 47.6C195.089 47.6 196.102 47.4267 196.689 47.08C197.302 46.7333 197.609 46.2533 197.609 45.64C197.609 45.1333 197.369 44.76 196.889 44.52C196.436 44.2533 195.822 44.0533 195.049 43.92C194.276 43.7867 193.422 43.6533 192.489 43.52C191.582 43.3867 190.662 43.2133 189.729 43C188.796 42.76 187.942 42.4133 187.169 41.96C186.396 41.5067 185.769 40.8933 185.289 40.12C184.836 39.3467 184.609 38.3467 184.609 37.12C184.609 35.76 184.996 34.56 185.769 33.52C186.569 32.48 187.716 31.6667 189.209 31.08C190.702 30.4667 192.489 30.16 194.569 30.16C196.036 30.16 197.529 30.32 199.049 30.64C200.569 30.96 201.836 31.4267 202.849 32.04L200.769 36.48C199.729 35.8667 198.676 35.4533 197.609 35.24C196.569 35 195.556 34.88 194.569 34.88C193.182 34.88 192.169 35.0667 191.529 35.44C190.889 35.8133 190.569 36.2933 190.569 36.88C190.569 37.4133 190.796 37.8133 191.249 38.08C191.729 38.3467 192.356 38.56 193.129 38.72C193.902 38.88 194.742 39.0267 195.649 39.16C196.582 39.2667 197.516 39.44 198.449 39.68C199.382 39.92 200.222 40.2667 200.969 40.72C201.742 41.1467 202.369 41.7467 202.849 42.52C203.329 43.2667 203.569 44.2533 203.569 45.48C203.569 46.8133 203.169 48 202.369 49.04C201.569 50.0533 200.409 50.8533 198.889 51.44C197.396 52.0267 195.569 52.32 193.409 52.32ZM218.099 52.32C215.646 52.32 213.486 51.84 211.619 50.88C209.779 49.92 208.352 48.6133 207.339 46.96C206.326 45.28 205.819 43.3733 205.819 41.24C205.819 39.08 206.312 37.1733 207.299 35.52C208.312 33.84 209.686 32.5333 211.419 31.6C213.152 30.64 215.112 30.16 217.299 30.16C219.406 30.16 221.299 30.6133 222.979 31.52C224.686 32.4 226.032 33.68 227.019 35.36C228.006 37.0133 228.499 39 228.499 41.32C228.499 41.56 228.486 41.84 228.459 42.16C228.432 42.4533 228.406 42.7333 228.379 43H210.899V39.36H225.099L222.699 40.44C222.699 39.32 222.472 38.3467 222.019 37.52C221.566 36.6933 220.939 36.0533 220.139 35.6C219.339 35.12 218.406 34.88 217.339 34.88C216.272 34.88 215.326 35.12 214.499 35.6C213.699 36.0533 213.072 36.7067 212.619 37.56C212.166 38.3867 211.939 39.3733 211.939 40.52V41.48C211.939 42.6533 212.192 43.6933 212.699 44.6C213.232 45.48 213.966 46.16 214.899 46.64C215.859 47.0933 216.979 47.32 218.259 47.32C219.406 47.32 220.406 47.1467 221.259 46.8C222.139 46.4533 222.939 45.9333 223.659 45.24L226.979 48.84C225.992 49.96 224.752 50.8267 223.259 51.44C221.766 52.0267 220.046 52.32 218.099 52.32Z" fill="black"/>
<path d="M226.782 55.5238C223.814 56.7169 223.447 57.0669 214.423 68.0463C212.706 70.207 210.926 71.835 210.498 71.6522C210.069 71.4694 208.283 69.0436 206.505 66.2595C199.936 56.2231 197.005 53.5982 194.195 55.4375C193.365 56.0242 190.488 59.2091 187.802 62.6208C183.208 68.4732 181.106 70.687 180.494 70.4259C180.31 70.3476 177.484 67.4779 174.211 64.1284C170.964 60.7177 167.438 57.6219 166.459 57.2042C164.072 56.1859 162.047 57.2027 155.835 62.4374C153.025 64.7834 149.98 67.1735 149.029 67.708L147.265 68.6196L141.857 62.9846C138.864 59.8268 135.968 57.2892 135.277 57.2117C133.6 57.0747 131.41 58.8169 126.326 64.4603C121.913 69.3776 120.527 71.6077 121.568 72.0516C122.302 72.3649 124.318 70.6929 129.368 65.4688C131.618 63.246 133.877 61.1717 134.436 61.0485C135.109 60.8289 136.806 62.2764 139.895 65.5476C142.32 68.1734 145.093 70.6588 146.072 71.0765C148.433 72.156 150.956 70.9899 157.055 65.8514C164.453 59.5314 164.427 59.5926 166.912 61.7378C168.014 62.7145 170.902 65.6103 173.326 68.236C178.814 74.1942 180.798 74.9685 184.044 72.447C185.353 71.4139 187.725 68.7366 189.434 66.4273C193.286 61.1266 195.589 58.7814 196.568 59.1991C196.997 59.3819 199.361 62.4883 201.813 66.0663C207.4 74.1647 208.52 75.4384 210.627 75.7582C212.645 76.1131 215.637 73.3387 220.903 66.2533C225.235 60.5062 228.106 58.1863 229.881 58.9435C230.554 59.2307 233.196 61.5154 235.76 63.9836C241.781 69.8797 243.495 71.1175 244.069 69.7711C244.879 67.8739 237.132 58.5647 232.593 55.9773C229.908 54.4703 229.576 54.4009 226.782 55.5238Z" fill="#9658CA" fill-opacity="0.5"/>
<path d="M16.0132 10.1774C16.6824 11.2019 17.3843 12.203 18.1154 13.1829C18.28 13.4061 18.4415 13.5758 18.7194 13.6513C18.9537 13.715 19.2686 13.6865 19.4775 13.5532C19.6864 13.4198 19.8873 13.2082 19.9461 12.9492C20.0024 12.7099 20.0026 12.397 19.848 12.1911C19.1169 11.2113 18.415 10.2101 17.7458 9.18568C17.4602 8.75115 16.8604 8.51494 16.3837 8.8154C15.9486 9.09206 15.7078 9.70825 16.0132 10.1774Z" fill="#BEB808"/>
<path d="M5.12343 24.2581L4.72893 24.4609C4.35517 24.6518 4.1341 25.1739 4.25867 25.5764C4.39415 26.014 4.75739 26.3029 5.21647 26.3253C7.33853 26.4399 9.47028 26.3145 11.5855 26.5296C12.107 26.5807 12.6098 26.0445 12.5921 25.5394C12.5719 24.9576 12.1596 24.5911 11.602 24.5331C9.4848 24.3144 7.35503 24.4434 5.23296 24.3287L5.72051 26.1932L6.11501 25.9904C6.58085 25.7513 6.7661 25.0703 6.48551 24.6283C6.18708 24.1552 5.62045 24.0012 5.12343 24.2581Z" fill="#BEB808"/>
<path d="M34.6032 9.8628C34.8343 8.7876 35.049 7.7079 35.2404 6.62778C35.2863 6.36233 35.2812 6.11229 35.1424 5.86977C35.0214 5.65843 34.7811 5.45559 34.5384 5.40132C34.2957 5.34704 34.0065 5.3562 33.7803 5.49949C33.5679 5.63484 33.3581 5.84694 33.3117 6.10348C33.1203 7.1836 32.9075 8.26675 32.6745 9.33849C32.6192 9.59553 32.6377 9.86093 32.7726 10.0965C32.8935 10.3079 33.1339 10.5107 33.3765 10.565C33.6192 10.6192 33.9084 10.6101 34.1347 10.4668C34.3609 10.3235 34.5445 10.1218 34.6032 9.8628Z" fill="#BEB808"/>
</svg>
