<svg width="235" height="28" viewBox="0 0 235 28" fill="none" xmlns="http://www.w3.org/2000/svg">
<path d="M3.724 18L0.448 8.2H1.89L4.9 17.244H4.172L7.294 8.2H8.582L11.634 17.244H10.934L13.986 8.2H15.316L12.04 18H10.57L7.714 9.614H8.092L5.222 18H3.724ZM16.5455 18V10.58H17.8335V12.596L17.7075 12.092C17.9128 11.5787 18.2582 11.1867 18.7435 10.916C19.2288 10.6453 19.8262 10.51 20.5355 10.51V11.812C20.4795 11.8027 20.4235 11.798 20.3675 11.798C20.3208 11.798 20.2742 11.798 20.2275 11.798C19.5088 11.798 18.9395 12.0127 18.5195 12.442C18.0995 12.8713 17.8895 13.492 17.8895 14.304V18H16.5455ZM22.192 18V10.58H23.536V18H22.192ZM22.864 9.152C22.6026 9.152 22.3833 9.068 22.206 8.9C22.038 8.732 21.954 8.52667 21.954 8.284C21.954 8.032 22.038 7.822 22.206 7.654C22.3833 7.486 22.6026 7.402 22.864 7.402C23.1253 7.402 23.34 7.486 23.508 7.654C23.6853 7.81267 23.774 8.01333 23.774 8.256C23.774 8.508 23.69 8.72267 23.522 8.9C23.354 9.068 23.1346 9.152 22.864 9.152ZM28.6501 18.084C27.9035 18.084 27.3248 17.8833 26.9141 17.482C26.5035 17.0807 26.2981 16.5067 26.2981 15.76V8.956H27.6421V15.704C27.6421 16.1053 27.7401 16.4133 27.9361 16.628C28.1415 16.8427 28.4308 16.95 28.8041 16.95C29.2241 16.95 29.5741 16.8333 29.8541 16.6L30.2741 17.566C30.0688 17.7433 29.8215 17.874 29.5321 17.958C29.2521 18.042 28.9581 18.084 28.6501 18.084ZM25.0381 11.686V10.58H29.7701V11.686H25.0381ZM34.9569 18.084C34.1636 18.084 33.4636 17.9207 32.8569 17.594C32.2596 17.2673 31.7929 16.8193 31.4569 16.25C31.1302 15.6807 30.9669 15.0273 30.9669 14.29C30.9669 13.5527 31.1256 12.8993 31.4429 12.33C31.7696 11.7607 32.2129 11.3173 32.7729 11C33.3422 10.6733 33.9816 10.51 34.6909 10.51C35.4096 10.51 36.0442 10.6687 36.5949 10.986C37.1456 11.3033 37.5749 11.7513 37.8829 12.33C38.2002 12.8993 38.3589 13.5667 38.3589 14.332C38.3589 14.388 38.3542 14.4533 38.3449 14.528C38.3449 14.6027 38.3402 14.6727 38.3309 14.738H32.0169V13.772H37.6309L37.0849 14.108C37.0942 13.632 36.9962 13.2073 36.7909 12.834C36.5856 12.4607 36.3009 12.1713 35.9369 11.966C35.5822 11.7513 35.1669 11.644 34.6909 11.644C34.2242 11.644 33.8089 11.7513 33.4449 11.966C33.0809 12.1713 32.7962 12.4653 32.5909 12.848C32.3856 13.2213 32.2829 13.6507 32.2829 14.136V14.36C32.2829 14.8547 32.3949 15.298 32.6189 15.69C32.8522 16.0727 33.1742 16.3713 33.5849 16.586C33.9956 16.8007 34.4669 16.908 34.9989 16.908C35.4376 16.908 35.8342 16.8333 36.1889 16.684C36.5529 16.5347 36.8702 16.3107 37.1409 16.012L37.8829 16.88C37.5469 17.272 37.1269 17.5707 36.6229 17.776C36.1282 17.9813 35.5729 18.084 34.9569 18.084ZM44.1809 18V9.922C44.1809 9.194 44.3909 8.61533 44.8109 8.186C45.2403 7.74733 45.8469 7.528 46.6309 7.528C46.9203 7.528 47.1956 7.56533 47.4569 7.64C47.7276 7.70533 47.9563 7.81267 48.1429 7.962L47.7369 8.984C47.5969 8.872 47.4383 8.788 47.2609 8.732C47.0836 8.66667 46.8969 8.634 46.7009 8.634C46.3089 8.634 46.0103 8.746 45.8049 8.97C45.5996 9.18467 45.4969 9.50667 45.4969 9.936V10.93L45.5249 11.546V18H44.1809ZM42.9209 11.686V10.58H47.6529V11.686H42.9209ZM48.9205 18V10.58H50.2085V12.596L50.0825 12.092C50.2878 11.5787 50.6332 11.1867 51.1185 10.916C51.6038 10.6453 52.2012 10.51 52.9105 10.51V11.812C52.8545 11.8027 52.7985 11.798 52.7425 11.798C52.6958 11.798 52.6492 11.798 52.6025 11.798C51.8838 11.798 51.3145 12.0127 50.8945 12.442C50.4745 12.8713 50.2645 13.492 50.2645 14.304V18H48.9205ZM57.8026 18.084C57.0093 18.084 56.3093 17.9207 55.7026 17.594C55.1053 17.2673 54.6386 16.8193 54.3026 16.25C53.9759 15.6807 53.8126 15.0273 53.8126 14.29C53.8126 13.5527 53.9713 12.8993 54.2886 12.33C54.6153 11.7607 55.0586 11.3173 55.6186 11C56.1879 10.6733 56.8273 10.51 57.5366 10.51C58.2553 10.51 58.8899 10.6687 59.4406 10.986C59.9913 11.3033 60.4206 11.7513 60.7286 12.33C61.0459 12.8993 61.2046 13.5667 61.2046 14.332C61.2046 14.388 61.1999 14.4533 61.1906 14.528C61.1906 14.6027 61.1859 14.6727 61.1766 14.738H54.8626V13.772H60.4766L59.9306 14.108C59.9399 13.632 59.8419 13.2073 59.6366 12.834C59.4313 12.4607 59.1466 12.1713 58.7826 11.966C58.4279 11.7513 58.0126 11.644 57.5366 11.644C57.0699 11.644 56.6546 11.7513 56.2906 11.966C55.9266 12.1713 55.6419 12.4653 55.4366 12.848C55.2313 13.2213 55.1286 13.6507 55.1286 14.136V14.36C55.1286 14.8547 55.2406 15.298 55.4646 15.69C55.6979 16.0727 56.0199 16.3713 56.4306 16.586C56.8413 16.8007 57.3126 16.908 57.8446 16.908C58.2833 16.908 58.6799 16.8333 59.0346 16.684C59.3986 16.5347 59.7159 16.3107 59.9866 16.012L60.7286 16.88C60.3926 17.272 59.9726 17.5707 59.4686 17.776C58.9739 17.9813 58.4186 18.084 57.8026 18.084ZM66.3749 18.084C65.5815 18.084 64.8815 17.9207 64.2749 17.594C63.6775 17.2673 63.2109 16.8193 62.8749 16.25C62.5482 15.6807 62.3849 15.0273 62.3849 14.29C62.3849 13.5527 62.5435 12.8993 62.8609 12.33C63.1875 11.7607 63.6309 11.3173 64.1909 11C64.7602 10.6733 65.3995 10.51 66.1089 10.51C66.8275 10.51 67.4622 10.6687 68.0129 10.986C68.5635 11.3033 68.9929 11.7513 69.3009 12.33C69.6182 12.8993 69.7769 13.5667 69.7769 14.332C69.7769 14.388 69.7722 14.4533 69.7629 14.528C69.7629 14.6027 69.7582 14.6727 69.7489 14.738H63.4349V13.772H69.0489L68.5029 14.108C68.5122 13.632 68.4142 13.2073 68.2089 12.834C68.0035 12.4607 67.7189 12.1713 67.3549 11.966C67.0002 11.7513 66.5849 11.644 66.1089 11.644C65.6422 11.644 65.2269 11.7513 64.8629 11.966C64.4989 12.1713 64.2142 12.4653 64.0089 12.848C63.8035 13.2213 63.7009 13.6507 63.7009 14.136V14.36C63.7009 14.8547 63.8129 15.298 64.0369 15.69C64.2702 16.0727 64.5922 16.3713 65.0029 16.586C65.4135 16.8007 65.8849 16.908 66.4169 16.908C66.8555 16.908 67.2522 16.8333 67.6069 16.684C67.9709 16.5347 68.2882 16.3107 68.5589 16.012L69.3009 16.88C68.9649 17.272 68.5449 17.5707 68.0409 17.776C67.5462 17.9813 66.9909 18.084 66.3749 18.084ZM71.6431 18V7.612H72.9871V18H71.6431ZM75.8753 20.8C75.5206 20.8 75.1753 20.7393 74.8393 20.618C74.5033 20.506 74.214 20.338 73.9713 20.114L74.5453 19.106C74.732 19.2833 74.9373 19.4187 75.1613 19.512C75.3853 19.6053 75.6233 19.652 75.8753 19.652C76.202 19.652 76.4726 19.568 76.6873 19.4C76.902 19.232 77.1026 18.9333 77.2893 18.504L77.7513 17.482L77.8913 17.314L80.8033 10.58H82.1193L78.5213 18.742C78.3066 19.2647 78.064 19.6753 77.7933 19.974C77.532 20.2727 77.2426 20.4827 76.9253 20.604C76.608 20.7347 76.258 20.8 75.8753 20.8ZM77.6393 18.238L74.2513 10.58H75.6513L78.5353 17.188L77.6393 18.238ZM83.2308 18.084C82.9694 18.084 82.7454 17.9953 82.5588 17.818C82.3721 17.6313 82.2788 17.398 82.2788 17.118C82.2788 16.838 82.3721 16.6093 82.5588 16.432C82.7454 16.2547 82.9694 16.166 83.2308 16.166C83.4828 16.166 83.6974 16.2547 83.8748 16.432C84.0614 16.6093 84.1548 16.838 84.1548 17.118C84.1548 17.398 84.0614 17.6313 83.8748 17.818C83.6974 17.9953 83.4828 18.084 83.2308 18.084ZM92.2904 18L89.0144 8.2H90.4564L93.4664 17.244H92.7384L95.8604 8.2H97.1484L100.2 17.244H99.5004L102.552 8.2H103.882L100.606 18H99.1364L96.2804 9.614H96.6584L93.7884 18H92.2904ZM108.142 18.084C107.349 18.084 106.649 17.9207 106.042 17.594C105.445 17.2673 104.978 16.8193 104.642 16.25C104.316 15.6807 104.152 15.0273 104.152 14.29C104.152 13.5527 104.311 12.8993 104.628 12.33C104.955 11.7607 105.398 11.3173 105.958 11C106.528 10.6733 107.167 10.51 107.876 10.51C108.595 10.51 109.23 10.6687 109.78 10.986C110.331 11.3033 110.76 11.7513 111.068 12.33C111.386 12.8993 111.544 13.5667 111.544 14.332C111.544 14.388 111.54 14.4533 111.53 14.528C111.53 14.6027 111.526 14.6727 111.516 14.738H105.202V13.772H110.816L110.27 14.108C110.28 13.632 110.182 13.2073 109.976 12.834C109.771 12.4607 109.486 12.1713 109.122 11.966C108.768 11.7513 108.352 11.644 107.876 11.644C107.41 11.644 106.994 11.7513 106.63 11.966C106.266 12.1713 105.982 12.4653 105.776 12.848C105.571 13.2213 105.468 13.6507 105.468 14.136V14.36C105.468 14.8547 105.58 15.298 105.804 15.69C106.038 16.0727 106.36 16.3713 106.77 16.586C107.181 16.8007 107.652 16.908 108.184 16.908C108.623 16.908 109.02 16.8333 109.374 16.684C109.738 16.5347 110.056 16.3107 110.326 16.012L111.068 16.88C110.732 17.272 110.312 17.5707 109.808 17.776C109.314 17.9813 108.758 18.084 108.142 18.084ZM112.865 11.434L113.565 8.592L113.747 9.404C113.476 9.404 113.248 9.32 113.061 9.152C112.884 8.984 112.795 8.76 112.795 8.48C112.795 8.19067 112.884 7.962 113.061 7.794C113.248 7.61667 113.472 7.528 113.733 7.528C114.004 7.528 114.223 7.62133 114.391 7.808C114.559 7.98533 114.643 8.20933 114.643 8.48C114.643 8.564 114.638 8.65267 114.629 8.746C114.62 8.83 114.596 8.928 114.559 9.04C114.531 9.152 114.484 9.29667 114.419 9.474L113.747 11.434H112.865ZM116.569 18V7.612H117.913V18H116.569ZM120.479 18V7.612H121.823V18H120.479ZM132.111 10.51C132.718 10.51 133.25 10.6267 133.707 10.86C134.174 11.0933 134.538 11.448 134.799 11.924C135.06 12.4 135.191 13.002 135.191 13.73V18H133.847V13.884C133.847 13.1653 133.67 12.624 133.315 12.26C132.97 11.896 132.48 11.714 131.845 11.714C131.369 11.714 130.954 11.8073 130.599 11.994C130.244 12.1807 129.969 12.456 129.773 12.82C129.586 13.184 129.493 13.6367 129.493 14.178V18H128.149V7.612H129.493V12.582L129.227 12.05C129.47 11.5647 129.843 11.1867 130.347 10.916C130.851 10.6453 131.439 10.51 132.111 10.51ZM142.284 18V16.432L142.214 16.138V13.464C142.214 12.8947 142.046 12.456 141.71 12.148C141.384 11.8307 140.889 11.672 140.226 11.672C139.788 11.672 139.358 11.7467 138.938 11.896C138.518 12.036 138.164 12.2273 137.874 12.47L137.314 11.462C137.697 11.154 138.154 10.9207 138.686 10.762C139.228 10.594 139.792 10.51 140.38 10.51C141.398 10.51 142.182 10.7573 142.732 11.252C143.283 11.7467 143.558 12.5027 143.558 13.52V18H142.284ZM139.848 18.084C139.298 18.084 138.812 17.9907 138.392 17.804C137.982 17.6173 137.664 17.3607 137.44 17.034C137.216 16.698 137.104 16.32 137.104 15.9C137.104 15.4987 137.198 15.1347 137.384 14.808C137.58 14.4813 137.893 14.22 138.322 14.024C138.761 13.828 139.349 13.73 140.086 13.73H142.438V14.696H140.142C139.47 14.696 139.018 14.808 138.784 15.032C138.551 15.256 138.434 15.5267 138.434 15.844C138.434 16.208 138.579 16.502 138.868 16.726C139.158 16.9407 139.559 17.048 140.072 17.048C140.576 17.048 141.015 16.936 141.388 16.712C141.771 16.488 142.046 16.1613 142.214 15.732L142.48 16.656C142.303 17.0947 141.99 17.4447 141.542 17.706C141.094 17.958 140.53 18.084 139.848 18.084ZM150.007 10.51C150.614 10.51 151.146 10.6267 151.603 10.86C152.07 11.0933 152.434 11.448 152.695 11.924C152.957 12.4 153.087 13.002 153.087 13.73V18H151.743V13.884C151.743 13.1653 151.566 12.624 151.211 12.26C150.866 11.896 150.376 11.714 149.741 11.714C149.265 11.714 148.85 11.8073 148.495 11.994C148.141 12.1807 147.865 12.456 147.669 12.82C147.483 13.184 147.389 13.6367 147.389 14.178V18H146.045V10.58H147.333V12.582L147.123 12.05C147.366 11.5647 147.739 11.1867 148.243 10.916C148.747 10.6453 149.335 10.51 150.007 10.51ZM158.641 18.084C157.922 18.084 157.278 17.9253 156.709 17.608C156.149 17.2907 155.705 16.8473 155.379 16.278C155.052 15.7087 154.889 15.046 154.889 14.29C154.889 13.534 155.052 12.876 155.379 12.316C155.705 11.7467 156.149 11.3033 156.709 10.986C157.278 10.6687 157.922 10.51 158.641 10.51C159.266 10.51 159.831 10.65 160.335 10.93C160.839 11.21 161.24 11.63 161.539 12.19C161.847 12.75 162.001 13.45 162.001 14.29C162.001 15.13 161.851 15.83 161.553 16.39C161.263 16.95 160.867 17.3747 160.363 17.664C159.859 17.944 159.285 18.084 158.641 18.084ZM158.753 16.908C159.219 16.908 159.639 16.8007 160.013 16.586C160.395 16.3713 160.694 16.068 160.909 15.676C161.133 15.2747 161.245 14.8127 161.245 14.29C161.245 13.758 161.133 13.3007 160.909 12.918C160.694 12.526 160.395 12.2227 160.013 12.008C159.639 11.7933 159.219 11.686 158.753 11.686C158.277 11.686 157.852 11.7933 157.479 12.008C157.105 12.2227 156.807 12.526 156.583 12.918C156.359 13.3007 156.247 13.758 156.247 14.29C156.247 14.8127 156.359 15.2747 156.583 15.676C156.807 16.068 157.105 16.3713 157.479 16.586C157.852 16.8007 158.277 16.908 158.753 16.908ZM161.287 18V15.998L161.371 14.276L161.231 12.554V7.612H162.575V18H161.287ZM165.118 18V7.612H166.462V18H165.118ZM172.332 18.084C171.539 18.084 170.839 17.9207 170.232 17.594C169.635 17.2673 169.168 16.8193 168.832 16.25C168.505 15.6807 168.342 15.0273 168.342 14.29C168.342 13.5527 168.501 12.8993 168.818 12.33C169.145 11.7607 169.588 11.3173 170.148 11C170.717 10.6733 171.357 10.51 172.066 10.51C172.785 10.51 173.419 10.6687 173.97 10.986C174.521 11.3033 174.95 11.7513 175.258 12.33C175.575 12.8993 175.734 13.5667 175.734 14.332C175.734 14.388 175.729 14.4533 175.72 14.528C175.72 14.6027 175.715 14.6727 175.706 14.738H169.392V13.772H175.006L174.46 14.108C174.469 13.632 174.371 13.2073 174.166 12.834C173.961 12.4607 173.676 12.1713 173.312 11.966C172.957 11.7513 172.542 11.644 172.066 11.644C171.599 11.644 171.184 11.7513 170.82 11.966C170.456 12.1713 170.171 12.4653 169.966 12.848C169.761 13.2213 169.658 13.6507 169.658 14.136V14.36C169.658 14.8547 169.77 15.298 169.994 15.69C170.227 16.0727 170.549 16.3713 170.96 16.586C171.371 16.8007 171.842 16.908 172.374 16.908C172.813 16.908 173.209 16.8333 173.564 16.684C173.928 16.5347 174.245 16.3107 174.516 16.012L175.258 16.88C174.922 17.272 174.502 17.5707 173.998 17.776C173.503 17.9813 172.948 18.084 172.332 18.084ZM183.908 18.084C183.161 18.084 182.583 17.8833 182.172 17.482C181.761 17.0807 181.556 16.5067 181.556 15.76V8.956H182.9V15.704C182.9 16.1053 182.998 16.4133 183.194 16.628C183.399 16.8427 183.689 16.95 184.062 16.95C184.482 16.95 184.832 16.8333 185.112 16.6L185.532 17.566C185.327 17.7433 185.079 17.874 184.79 17.958C184.51 18.042 184.216 18.084 183.908 18.084ZM180.296 11.686V10.58H185.028V11.686H180.296ZM191.119 10.51C191.725 10.51 192.257 10.6267 192.715 10.86C193.181 11.0933 193.545 11.448 193.807 11.924C194.068 12.4 194.199 13.002 194.199 13.73V18H192.855V13.884C192.855 13.1653 192.677 12.624 192.323 12.26C191.977 11.896 191.487 11.714 190.853 11.714C190.377 11.714 189.961 11.8073 189.607 11.994C189.252 12.1807 188.977 12.456 188.781 12.82C188.594 13.184 188.501 13.6367 188.501 14.178V18H187.157V7.612H188.501V12.582L188.235 12.05C188.477 11.5647 188.851 11.1867 189.355 10.916C189.859 10.6453 190.447 10.51 191.119 10.51ZM199.99 18.084C199.197 18.084 198.497 17.9207 197.89 17.594C197.293 17.2673 196.826 16.8193 196.49 16.25C196.163 15.6807 196 15.0273 196 14.29C196 13.5527 196.159 12.8993 196.476 12.33C196.803 11.7607 197.246 11.3173 197.806 11C198.375 10.6733 199.015 10.51 199.724 10.51C200.443 10.51 201.077 10.6687 201.628 10.986C202.179 11.3033 202.608 11.7513 202.916 12.33C203.233 12.8993 203.392 13.5667 203.392 14.332C203.392 14.388 203.387 14.4533 203.378 14.528C203.378 14.6027 203.373 14.6727 203.364 14.738H197.05V13.772H202.664L202.118 14.108C202.127 13.632 202.029 13.2073 201.824 12.834C201.619 12.4607 201.334 12.1713 200.97 11.966C200.615 11.7513 200.2 11.644 199.724 11.644C199.257 11.644 198.842 11.7513 198.478 11.966C198.114 12.1713 197.829 12.4653 197.624 12.848C197.419 13.2213 197.316 13.6507 197.316 14.136V14.36C197.316 14.8547 197.428 15.298 197.652 15.69C197.885 16.0727 198.207 16.3713 198.618 16.586C199.029 16.8007 199.5 16.908 200.032 16.908C200.471 16.908 200.867 16.8333 201.222 16.684C201.586 16.5347 201.903 16.3107 202.174 16.012L202.916 16.88C202.58 17.272 202.16 17.5707 201.656 17.776C201.161 17.9813 200.606 18.084 199.99 18.084ZM209.018 18V10.58H210.306V12.596L210.18 12.092C210.385 11.5787 210.731 11.1867 211.216 10.916C211.701 10.6453 212.299 10.51 213.008 10.51V11.812C212.952 11.8027 212.896 11.798 212.84 11.798C212.793 11.798 212.747 11.798 212.7 11.798C211.981 11.798 211.412 12.0127 210.992 12.442C210.572 12.8713 210.362 13.492 210.362 14.304V18H209.018ZM217.9 18.084C217.107 18.084 216.407 17.9207 215.8 17.594C215.203 17.2673 214.736 16.8193 214.4 16.25C214.074 15.6807 213.91 15.0273 213.91 14.29C213.91 13.5527 214.069 12.8993 214.386 12.33C214.713 11.7607 215.156 11.3173 215.716 11C216.286 10.6733 216.925 10.51 217.634 10.51C218.353 10.51 218.988 10.6687 219.538 10.986C220.089 11.3033 220.518 11.7513 220.826 12.33C221.144 12.8993 221.302 13.5667 221.302 14.332C221.302 14.388 221.298 14.4533 221.288 14.528C221.288 14.6027 221.284 14.6727 221.274 14.738H214.96V13.772H220.574L220.028 14.108C220.038 13.632 219.94 13.2073 219.734 12.834C219.529 12.4607 219.244 12.1713 218.88 11.966C218.526 11.7513 218.11 11.644 217.634 11.644C217.168 11.644 216.752 11.7513 216.388 11.966C216.024 12.1713 215.74 12.4653 215.534 12.848C215.329 13.2213 215.226 13.6507 215.226 14.136V14.36C215.226 14.8547 215.338 15.298 215.562 15.69C215.796 16.0727 216.118 16.3713 216.528 16.586C216.939 16.8007 217.41 16.908 217.942 16.908C218.381 16.908 218.778 16.8333 219.132 16.684C219.496 16.5347 219.814 16.3107 220.084 16.012L220.826 16.88C220.49 17.272 220.07 17.5707 219.566 17.776C219.072 17.9813 218.516 18.084 217.9 18.084ZM225.297 18.084C224.681 18.084 224.093 18 223.533 17.832C222.982 17.664 222.548 17.4587 222.231 17.216L222.791 16.152C223.108 16.3667 223.5 16.5487 223.967 16.698C224.433 16.8473 224.909 16.922 225.395 16.922C226.02 16.922 226.468 16.8333 226.739 16.656C227.019 16.4787 227.159 16.2313 227.159 15.914C227.159 15.6807 227.075 15.4987 226.907 15.368C226.739 15.2373 226.515 15.1393 226.235 15.074C225.964 15.0087 225.661 14.9527 225.325 14.906C224.989 14.85 224.653 14.7847 224.317 14.71C223.981 14.626 223.673 14.514 223.393 14.374C223.113 14.2247 222.889 14.024 222.721 13.772C222.553 13.5107 222.469 13.1653 222.469 12.736C222.469 12.288 222.595 11.896 222.847 11.56C223.099 11.224 223.453 10.9673 223.911 10.79C224.377 10.6033 224.928 10.51 225.563 10.51C226.048 10.51 226.538 10.5707 227.033 10.692C227.537 10.804 227.947 10.9673 228.265 11.182L227.691 12.246C227.355 12.022 227.005 11.868 226.641 11.784C226.277 11.7 225.913 11.658 225.549 11.658C224.961 11.658 224.522 11.756 224.233 11.952C223.943 12.1387 223.799 12.3813 223.799 12.68C223.799 12.932 223.883 13.128 224.051 13.268C224.228 13.3987 224.452 13.5013 224.723 13.576C225.003 13.6507 225.311 13.716 225.647 13.772C225.983 13.8187 226.319 13.884 226.655 13.968C226.991 14.0427 227.294 14.15 227.565 14.29C227.845 14.43 228.069 14.626 228.237 14.878C228.414 15.13 228.503 15.466 228.503 15.886C228.503 16.334 228.372 16.7213 228.111 17.048C227.849 17.3747 227.481 17.6313 227.005 17.818C226.529 17.9953 225.959 18.084 225.297 18.084ZM232.73 18.084C231.984 18.084 231.405 17.8833 230.994 17.482C230.584 17.0807 230.378 16.5067 230.378 15.76V8.956H231.722V15.704C231.722 16.1053 231.82 16.4133 232.016 16.628C232.222 16.8427 232.511 16.95 232.884 16.95C233.304 16.95 233.654 16.8333 233.934 16.6L234.354 17.566C234.149 17.7433 233.902 17.874 233.612 17.958C233.332 18.042 233.038 18.084 232.73 18.084ZM229.118 11.686V10.58H233.85V11.686H229.118Z" fill="black" fill-opacity="0.5"/>
<path d="M166.596 2.2468C163.751 1.32112 160.8 0.766165 157.823 0.598227C156.33 0.513976 154.831 0.542247 153.336 0.587723C151.841 0.633198 150.344 0.723734 148.854 0.861713C145.862 1.14075 142.885 1.60611 139.95 2.25846C138.562 2.5665 137.173 2.88679 135.811 3.3028C134.444 3.72036 133.104 4.22714 131.794 4.81013C130.484 5.39311 129.231 6.04643 128.008 6.78065C126.689 7.57383 125.433 8.39726 124.502 9.6747C124.069 10.2698 123.737 10.9229 123.483 11.6176C123.356 11.9682 123.254 12.327 123.175 12.6918C123.084 13.1153 122.991 13.5499 123.055 13.9811C123.231 15.187 123.66 16.3673 124.366 17.3493C125.072 18.3313 126.07 19.163 127.171 19.7235C128.51 20.407 129.885 21.0222 131.284 21.5598C132.717 22.1098 134.179 22.5732 135.663 22.9458C137.162 23.3221 138.673 23.575 140.199 23.8072C146.331 24.7394 152.566 25.231 158.764 24.8933C161.745 24.7312 164.717 24.3484 167.646 23.7578C169.012 23.4822 170.354 23.1684 171.669 22.6855C172.984 22.2026 174.223 21.6115 175.417 20.9008C176.61 20.1902 177.901 19.3341 178.778 18.1361C179.655 16.9381 180.019 15.5088 179.98 14.0498C179.962 13.3598 179.731 12.6906 179.487 12.0525C179.243 11.4144 178.969 10.8262 178.628 10.2565C177.956 9.13264 177.087 8.14521 176.083 7.33195C173.579 5.303 170.771 3.68608 167.797 2.52273C164.987 1.42423 162.011 0.788686 159.036 0.398799C156.158 0.0205604 153.255 -0.0910359 150.357 0.0743247C147.376 0.245815 144.403 0.533543 141.458 1.03944C139.992 1.2919 138.537 1.59389 137.091 1.94256C135.644 2.29124 134.233 2.7456 132.797 3.11464C130.148 3.79514 127.695 5.12105 125.65 6.99175C125.394 7.22712 125.181 7.45852 124.995 7.75751C124.798 8.07652 124.635 8.41546 124.498 8.76548C124.229 9.44887 124.098 10.1681 124.074 10.9034C124.053 11.5796 125.067 11.5738 125.089 10.8987C125.105 10.3869 125.188 9.89043 125.344 9.40425C125.491 8.95319 125.712 8.40897 126.024 8.05194C126.319 7.71177 126.714 7.4192 127.06 7.1358C127.406 6.85239 127.798 6.56528 128.182 6.30498C128.967 5.77689 129.798 5.3204 130.661 4.94298C131.523 4.56556 132.46 4.29816 133.387 4.04713C134.403 3.77332 135.404 3.44969 136.422 3.18735C137.44 2.92502 138.458 2.68899 139.483 2.4741C141.535 2.04824 143.607 1.71964 145.69 1.49425C149.82 1.04879 153.976 0.863692 158.113 1.33135C162.356 1.8094 166.573 2.84195 170.399 4.84104C171.401 5.36434 172.374 5.94326 173.312 6.57646C174.185 7.16325 175.063 7.77768 175.847 8.48597C177.167 9.68208 178.165 11.2044 178.714 12.9295C178.785 13.1512 178.849 13.3763 178.906 13.602C178.969 13.8534 178.963 14.1165 178.96 14.3741C178.953 14.8743 178.887 15.3661 178.755 15.8471C178.502 16.7752 177.987 17.5883 177.315 18.2513C176.608 18.947 175.746 19.4825 174.904 19.9835C174.062 20.4845 173.216 20.9204 172.331 21.2982C170.5 22.0794 168.59 22.515 166.651 22.882C164.567 23.2767 162.465 23.5612 160.356 23.7322C156.035 24.083 151.663 23.9715 147.343 23.6176C145.162 23.4398 142.989 23.1844 140.825 22.8477C138.661 22.5129 136.527 22.1404 134.42 21.5193C132.345 20.9077 130.321 20.1158 128.372 19.1554C127.585 18.7678 126.803 18.3804 126.137 17.7886C125.544 17.2625 125.055 16.6402 124.696 15.9216C124.338 15.2031 124.119 14.3689 124.01 13.5473L124.011 13.8146C124.201 12.2719 124.758 10.8198 125.806 9.68513C126.351 9.09601 126.975 8.64169 127.646 8.22327C128.28 7.82786 128.916 7.43924 129.568 7.07701C132.138 5.65108 134.875 4.57422 137.708 3.85628C140.703 3.09661 143.747 2.5065 146.809 2.13114C149.901 1.75201 153.025 1.57337 156.139 1.59266C159.252 1.61196 162.278 2.06148 165.242 2.92206C165.608 3.02951 165.973 3.14061 166.335 3.26003C166.958 3.46245 167.214 2.44607 166.59 2.24364L166.596 2.2468Z" fill="#EC916F" fill-opacity="0.7"/>
<path d="M40.0701 20.8085C40.4492 21.2867 41.3297 21.8248 41.9336 21.946L42.3867 22.0299L42.5782 22.7144C42.7313 23.2434 42.8382 23.4707 43.0653 23.7262C43.6453 24.375 44.7245 24.7127 45.8262 24.579C46.3754 24.5219 46.4341 24.5317 46.8538 24.8396C48.287 25.8769 50.5552 25.3666 51.0003 23.9107C51.2104 23.2331 50.9962 23.1408 50.5831 23.7322C50.2485 24.2158 49.8918 24.446 49.2674 24.5912C48.5275 24.7533 47.4312 24.5416 47.3322 24.2189C47.314 24.1595 47.3754 24.057 47.4695 24.0003C47.8464 23.7452 48.3001 23.1043 48.397 22.6937C48.6465 21.6602 47.9568 21.0171 46.9294 21.3324C46.1398 21.5748 45.7246 22.3712 45.8728 23.3383L45.954 23.8151L45.649 23.8808C44.5479 24.1073 43.3039 23.3835 43.2438 22.4915L43.2212 22.1454L44.0036 21.8495C44.5791 21.6357 44.875 21.4799 45.0965 21.2632C46.0375 20.3334 45.4537 19.3698 44.1801 19.7607C43.6367 19.9275 43.2179 20.2883 42.8812 20.8562C42.6034 21.3131 42.4675 21.3548 41.893 21.178C41.0482 20.9078 40.3565 20.2282 40.293 19.5973C40.2489 19.2114 40.5046 18.6219 40.8875 18.235C41.1352 17.9824 41.3083 17.9107 42.0496 17.6925C42.9463 17.4359 43.1208 17.308 42.8211 17.1491C42.5992 17.0314 41.7555 17.0674 41.2716 17.2159C40.4055 17.4817 39.7121 18.2798 39.5926 19.1619C39.508 19.7639 39.6585 20.2845 40.0701 20.8085ZM43.8581 20.77C44.1228 20.5123 44.6022 20.3187 44.7288 20.4285C44.8306 20.518 44.466 20.8436 44.0029 21.06C43.5424 21.285 43.4752 21.157 43.8581 20.77ZM46.617 22.6454C46.7088 22.0969 47.5148 21.7567 47.7072 22.1714C47.8624 22.4954 47.3505 23.34 46.9174 23.4729C46.7816 23.5146 46.732 23.4741 46.6564 23.2279C46.6043 23.0581 46.5882 22.7936 46.617 22.6454Z" fill="#1A7C49"/>
</svg>
